<svg width="648" height="634" viewBox="0 0 648 634" fill="none" xmlns="http://www.w3.org/2000/svg">
<path d="M530.033 72.3389C602.076 130.481 648 218.493 648 317C648 492.074 502.94 634 324 634C178.524 634 55.4416 540.194 14.4932 411.034C24.6533 409.669 34.663 407.843 44.5 405.578C68.4199 411.085 93.3621 414 119 414C133.924 414 148.612 413.011 163 411.1C177.388 413.011 192.076 414 207 414C385.94 414 531 272.074 531 97C531 88.7013 530.673 80.4771 530.033 72.3389ZM88.5 392.127C107.493 399.433 127.361 405.035 147.909 408.739C138.387 409.573 128.745 410 119 410C96.4995 410 74.544 407.728 53.3584 403.408C65.36 400.291 77.0881 396.517 88.5 392.127ZM432.953 18.3701C466.84 30.206 498.121 47.4061 525.729 68.9258C526.57 78.1744 527 87.5384 527 97C527 269.783 383.814 410 207 410C197.255 410 187.612 409.573 178.09 408.739C328.814 381.565 443 252.329 443 97C443 69.8581 439.512 43.5133 432.953 18.3701ZM10.0459 395.629C18.4237 398.555 26.9605 401.154 35.6406 403.408C28.2812 404.909 20.8289 406.162 13.293 407.158C12.1387 403.345 11.0559 399.501 10.0459 395.629ZM324 0C360.527 0 395.642 5.91472 428.4 16.8174C435.316 42.411 439 69.2865 439 97C439 255.195 318.971 386.089 163 407.064C139.063 403.845 115.974 398.038 94.0342 389.939C211.429 342.304 294 229.087 294 97C294 64.2583 288.926 32.6763 279.506 2.96484C294.052 1.01026 308.905 0 324 0ZM0.96582 341.66C25.5249 361.481 53.1196 377.829 82.9648 389.939C70.496 394.542 57.6562 398.406 44.5 401.474C32.3385 398.638 20.4469 395.122 8.86914 390.972C4.96 374.971 2.29013 358.5 0.96582 341.66ZM275.484 3.53125C284.916 33.0518 290 64.4477 290 97C290 228.867 206.599 341.763 88.5 387.839C56.2833 375.27 26.6487 357.729 0.584961 336.186C0.19771 329.839 0 323.442 0 317C0 158.058 119.558 26.4383 275.484 3.53125Z" fill="#5D71D6"/>
</svg>
