<svg width="60" height="60" viewBox="0 0 60 60" fill="none" xmlns="http://www.w3.org/2000/svg">
<path d="M52.5 17.5H37.5C36.837 17.5 36.2011 17.7634 35.7322 18.2322C35.2634 18.7011 35 19.337 35 20V27.5H30V10C30 9.33696 29.7366 8.70107 29.2678 8.23223C28.7989 7.76339 28.163 7.5 27.5 7.5H7.5C6.83696 7.5 6.20107 7.76339 5.73223 8.23223C5.26339 8.70107 5 9.33696 5 10V50C5 50.663 5.26339 51.2989 5.73223 51.7678C6.20107 52.2366 6.83696 52.5 7.5 52.5H52.5C53.163 52.5 53.7989 52.2366 54.2678 51.7678C54.7366 51.2989 55 50.663 55 50V20C55 19.337 54.7366 18.7011 54.2678 18.2322C53.7989 17.7634 53.163 17.5 52.5 17.5ZM20 15H25V20H20V15ZM15 40H10V35H15V40ZM15 30H10V25H15V30ZM15 20H10V15H15V20ZM25 40H20V35H25V40ZM25 30H20V25H25V30ZM47.5 40H42.5V35H47.5V40ZM47.5 30H42.5V25H47.5V30Z" fill="#5D71D6"/>
</svg>
