<svg width="60" height="60" viewBox="0 0 60 60" fill="none" xmlns="http://www.w3.org/2000/svg">
<path d="M12.5 50V45H47.5V50H12.5ZM12.5 41.25L9.31251 21.1875C9.22917 21.1875 9.13501 21.1983 9.03001 21.22C8.92501 21.2417 8.83167 21.2517 8.75001 21.25C7.70834 21.25 6.82334 20.885 6.09501 20.155C5.36667 19.425 5.00167 18.54 5.00001 17.5C4.99834 16.46 5.36334 15.575 6.09501 14.845C6.82667 14.115 7.71167 13.75 8.75001 13.75C9.78834 13.75 10.6742 14.115 11.4075 14.845C12.1408 15.575 12.505 16.46 12.5 17.5C12.5 17.7917 12.4683 18.0625 12.405 18.3125C12.3417 18.5625 12.2692 18.7917 12.1875 19L20 22.5L27.8125 11.8125C27.3542 11.4792 26.9792 11.0417 26.6875 10.5C26.3958 9.95834 26.25 9.37501 26.25 8.75001C26.25 7.70834 26.615 6.82251 27.345 6.09251C28.075 5.36251 28.96 4.99834 30 5.00001C31.04 5.00167 31.9258 5.36667 32.6575 6.09501C33.3892 6.82334 33.7533 7.70834 33.75 8.75001C33.75 9.37501 33.6042 9.95834 33.3125 10.5C33.0208 11.0417 32.6458 11.4792 32.1875 11.8125L40 22.5L47.8125 19C47.7292 18.7917 47.6558 18.5625 47.5925 18.3125C47.5292 18.0625 47.4983 17.7917 47.5 17.5C47.5 16.4583 47.865 15.5725 48.595 14.8425C49.325 14.1125 50.21 13.7483 51.25 13.75C52.29 13.7517 53.1758 14.1167 53.9075 14.845C54.6392 15.5733 55.0033 16.4583 55 17.5C54.9967 18.5417 54.6325 19.4275 53.9075 20.1575C53.1825 20.8875 52.2967 21.2517 51.25 21.25C51.1667 21.25 51.0733 21.24 50.97 21.22C50.8667 21.2 50.7725 21.1892 50.6875 21.1875L47.5 41.25H12.5Z" fill="#5D71D6"/>
</svg>
